<svg xmlns="http://www.w3.org/2000/svg" viewBox="0 0 32 32" fill="none">
  <rect width="32" height="32" rx="8" fill="url(#g)"/>
  <path d="M10 22V10h4.5c2.2 0 3.5 1.2 3.5 3 0 1.3-.7 2.2-1.8 2.7 1.4.5 2.3 1.7 2.3 3.3 0 2.3-1.8 3.5-4.5 3.5H10zm2.2-6.8h2.1c1 0 1.5-.4 1.5-1.2s-.5-1.2-1.5-1.2h-2.1v2.4zm0 4.8h2.4c1.2 0 1.8-.5 1.8-1.3 0-.8-.6-1.3-1.8-1.3h-2.4v2.6z" fill="white"/>
  <defs>
    <linearGradient id="g" x1="0" y1="0" x2="32" y2="32">
      <stop stop-color="#7c3aed"/>
      <stop offset="1" stop-color="#d946ef"/>
    </linearGradient>
  </defs>
</svg>
